<svg width="24" height="24" viewBox="0 0 24 24" fill="none" xmlns="http://www.w3.org/2000/svg">
<rect y="0.00292969" width="24" height="24" rx="12" fill="#091326"/>
<path opacity="0.7" d="M20.16 17.8352C18.3409 20.3593 15.3725 22.0029 12.0195 22.0029C6.48633 22.0029 2 17.5255 2 12.0026C2 6.47959 6.48633 2.00293 12.0195 2.00293C15.3657 2.00293 18.3288 3.63975 20.1479 6.1548" stroke="url(#paint0_radial_44_3141)" stroke-linecap="round" stroke-linejoin="round"/>
<path d="M11.7111 10.7178L11.7112 10.7177C11.6003 10.5431 11.6579 10.3302 11.8222 10.2266L11.7111 10.7178ZM11.7111 10.7178L11.7146 10.7228L11.7868 10.8251C11.8964 10.9803 12.1266 11.0315 12.2926 10.927L12.2928 10.9269L15.9283 8.63019L15.8617 8.52442L15.9284 8.63009L15.9284 8.63011C16.0908 8.52778 16.1538 8.30086 16.036 8.13396L15.9638 8.03163C15.8542 7.87637 15.624 7.82518 15.458 7.92972L15.4578 7.92981L11.8224 10.2265L11.7111 10.7178ZM15.9286 15.3545L15.9285 15.3545L9.751 11.4685V8.29697C9.751 8.06212 9.54376 7.87635 9.313 7.87635C9.08225 7.87635 8.875 8.06212 8.875 8.29697V15.6877C8.875 15.9226 9.08225 16.1083 9.313 16.1083C9.54376 16.1083 9.751 15.9226 9.751 15.6877V12.4689L15.4463 16.055C15.6436 16.1792 15.9114 16.1357 16.0484 15.9417L16.0712 15.9093V15.8965C16.1821 15.7115 16.1162 15.4727 15.9286 15.3545Z" fill="white" stroke="white" stroke-width="0.25"/>
<defs>
<radialGradient id="paint0_radial_44_3141" cx="0" cy="0" r="1" gradientUnits="userSpaceOnUse" gradientTransform="translate(21.5902 7.04761) rotate(108.872) scale(11.3311 27.4786)">
<stop offset="0.139194" stop-color="white" stop-opacity="0.5"/>
<stop offset="0.620501" stop-color="white" stop-opacity="0.8"/>
<stop offset="1" stop-color="white"/>
</radialGradient>
</defs>
</svg>
